<svg width="131" height="131" viewBox="0 0 131 131" fill="none" xmlns="http://www.w3.org/2000/svg">
<path d="M65.5 0L70.6114 39.8034L90.5658 4.98589L80.0559 43.7155L111.815 19.1845L87.2845 50.9441L126.014 40.4342L91.1966 60.3886L131 65.5L91.1966 70.6114L126.014 90.5658L87.2845 80.0559L111.815 111.815L80.0559 87.2845L90.5658 126.014L70.6114 91.1966L65.5 131L60.3886 91.1966L40.4342 126.014L50.9441 87.2845L19.1845 111.815L43.7155 80.0559L4.98589 90.5658L39.8034 70.6114L0 65.5L39.8034 60.3886L4.98589 40.4342L43.7155 50.9441L19.1845 19.1845L50.9441 43.7155L40.4342 4.98589L60.3886 39.8034L65.5 0Z" fill="#53D94D"/>
</svg>
