<svg width="45" height="46" viewBox="0 0 45 46" fill="none" xmlns="http://www.w3.org/2000/svg">
<path d="M26.688 17.4008L27.6536 17.1408L26.688 17.4008C26.8733 18.089 27.411 18.6267 28.0992 18.812L28.3592 17.8464L28.0992 18.812L43.6537 23L28.0992 27.188L28.3592 28.1536L28.0992 27.188C27.411 27.3733 26.8733 27.911 26.688 28.5992L27.6536 28.8592L26.688 28.5992L22.5 44.1537L18.312 28.5992L17.3464 28.8592L18.312 28.5992C18.1267 27.911 17.589 27.3733 16.9008 27.188L16.6408 28.1536L16.9008 27.188L1.34632 23L16.9008 18.812L16.6408 17.8464L16.9008 18.812C17.589 18.6267 18.1267 18.089 18.312 17.4008L17.3464 17.1408L18.312 17.4008L22.5 1.84632L26.688 17.4008Z" stroke="#53D94D" stroke-width="2"/>
</svg>
