<svg width="180" height="40" viewBox="0 0 180 40" fill="none" xmlns="http://www.w3.org/2000/svg">
<path d="M40 20C40 31.0457 11 12 20 40C8.9543 40 0 31.0457 0 20C0 8.9543 8.9543 0 20 0C31.0457 0 40 8.9543 40 20Z" fill="#53D94D"/>
<path d="M58.41 30.3C56.63 30.3 55.1 30.01 53.82 29.43C52.54 28.83 51.54 27.92 50.82 26.7C50.1 25.46 49.71 23.92 49.65 22.08C49.63 21.22 49.62 20.37 49.62 19.53C49.62 18.69 49.63 17.83 49.65 16.95C49.71 15.13 50.11 13.61 50.85 12.39C51.59 11.17 52.6 10.25 53.88 9.63C55.18 9.01 56.69 8.7 58.41 8.7C60.13 8.7 61.64 9.01 62.94 9.63C64.24 10.25 65.26 11.17 66 12.39C66.74 13.61 67.14 15.13 67.2 16.95C67.24 17.83 67.26 18.69 67.26 19.53C67.26 20.37 67.24 21.22 67.2 22.08C67.14 23.92 66.75 25.46 66.03 26.7C65.31 27.92 64.3 28.83 63 29.43C61.72 30.01 60.19 30.3 58.41 30.3ZM58.41 26.85C59.71 26.85 60.77 26.47 61.59 25.71C62.41 24.93 62.85 23.67 62.91 21.93C62.95 21.05 62.97 20.24 62.97 19.5C62.97 18.74 62.95 17.93 62.91 17.07C62.87 15.91 62.65 14.97 62.25 14.25C61.87 13.51 61.35 12.98 60.69 12.66C60.03 12.32 59.27 12.15 58.41 12.15C57.57 12.15 56.82 12.32 56.16 12.66C55.5 12.98 54.97 13.51 54.57 14.25C54.19 14.97 53.98 15.91 53.94 17.07C53.92 17.93 53.91 18.74 53.91 19.5C53.91 20.24 53.92 21.05 53.94 21.93C54 23.67 54.44 24.93 55.26 25.71C56.08 26.47 57.13 26.85 58.41 26.85ZM71.5894 35.7C71.3894 35.7 71.2194 35.63 71.0794 35.49C70.9394 35.35 70.8694 35.18 70.8694 34.98V15.12C70.8694 14.92 70.9394 14.75 71.0794 14.61C71.2194 14.47 71.3894 14.4 71.5894 14.4H73.9594C74.1794 14.4 74.3494 14.47 74.4694 14.61C74.6094 14.75 74.6794 14.92 74.6794 15.12V16.32C75.1594 15.68 75.7894 15.15 76.5694 14.73C77.3494 14.31 78.3194 14.1 79.4794 14.1C80.5394 14.1 81.4594 14.27 82.2394 14.61C83.0194 14.95 83.6694 15.44 84.1894 16.08C84.7094 16.7 85.1094 17.44 85.3894 18.3C85.6694 19.16 85.8294 20.11 85.8694 21.15C85.8894 21.49 85.8994 21.84 85.8994 22.2C85.8994 22.56 85.8894 22.92 85.8694 23.28C85.8494 24.28 85.6994 25.21 85.4194 26.07C85.1394 26.91 84.7294 27.65 84.1894 28.29C83.6694 28.91 83.0194 29.4 82.2394 29.76C81.4594 30.12 80.5394 30.3 79.4794 30.3C78.3994 30.3 77.4794 30.11 76.7194 29.73C75.9594 29.33 75.3394 28.81 74.8594 28.17V34.98C74.8594 35.18 74.7894 35.35 74.6494 35.49C74.5294 35.63 74.3594 35.7 74.1394 35.7H71.5894ZM78.3694 27.09C79.2294 27.09 79.8994 26.91 80.3794 26.55C80.8594 26.17 81.1994 25.68 81.3994 25.08C81.6194 24.48 81.7494 23.82 81.7894 23.1C81.8294 22.5 81.8294 21.9 81.7894 21.3C81.7494 20.58 81.6194 19.92 81.3994 19.32C81.1994 18.72 80.8594 18.24 80.3794 17.88C79.8994 17.5 79.2294 17.31 78.3694 17.31C77.5494 17.31 76.8794 17.5 76.3594 17.88C75.8594 18.26 75.4894 18.75 75.2494 19.35C75.0294 19.93 74.8994 20.53 74.8594 21.15C74.8394 21.51 74.8294 21.89 74.8294 22.29C74.8294 22.69 74.8394 23.08 74.8594 23.46C74.8794 24.06 75.0194 24.64 75.2794 25.2C75.5394 25.74 75.9194 26.19 76.4194 26.55C76.9194 26.91 77.5694 27.09 78.3694 27.09ZM95.9871 30.3C93.7671 30.3 92.0071 29.66 90.7071 28.38C89.4071 27.1 88.7071 25.28 88.6071 22.92C88.5871 22.72 88.5771 22.47 88.5771 22.17C88.5771 21.85 88.5871 21.6 88.6071 21.42C88.6871 19.92 89.0271 18.62 89.6271 17.52C90.2471 16.42 91.0971 15.58 92.1771 15C93.2571 14.4 94.5271 14.1 95.9871 14.1C97.6071 14.1 98.9671 14.44 100.067 15.12C101.167 15.78 101.997 16.71 102.557 17.91C103.117 19.09 103.397 20.46 103.397 22.02V22.65C103.397 22.85 103.327 23.02 103.187 23.16C103.047 23.3 102.867 23.37 102.647 23.37H92.6871C92.6871 23.37 92.6871 23.4 92.6871 23.46C92.6871 23.52 92.6871 23.57 92.6871 23.61C92.7071 24.31 92.8371 24.96 93.0771 25.56C93.3371 26.14 93.7071 26.61 94.1871 26.97C94.6871 27.33 95.2771 27.51 95.9571 27.51C96.5171 27.51 96.9871 27.43 97.3671 27.27C97.7471 27.09 98.0571 26.89 98.2971 26.67C98.5371 26.45 98.7071 26.27 98.8071 26.13C98.9871 25.89 99.1271 25.75 99.2271 25.71C99.3471 25.65 99.5171 25.62 99.7371 25.62H102.317C102.517 25.62 102.677 25.68 102.797 25.8C102.937 25.92 102.997 26.07 102.977 26.25C102.957 26.57 102.787 26.96 102.467 27.42C102.167 27.88 101.727 28.33 101.147 28.77C100.567 29.21 99.8371 29.58 98.9571 29.88C98.0971 30.16 97.1071 30.3 95.9871 30.3ZM92.6871 20.85H99.3171V20.76C99.3171 19.98 99.1871 19.3 98.9271 18.72C98.6671 18.14 98.2871 17.68 97.7871 17.34C97.2871 17 96.6871 16.83 95.9871 16.83C95.2871 16.83 94.6871 17 94.1871 17.34C93.6871 17.68 93.3071 18.14 93.0471 18.72C92.8071 19.3 92.6871 19.98 92.6871 20.76V20.85ZM107.302 30C107.102 30 106.932 29.93 106.792 29.79C106.652 29.65 106.582 29.48 106.582 29.28V15.12C106.582 14.92 106.652 14.75 106.792 14.61C106.932 14.47 107.102 14.4 107.302 14.4H109.762C109.962 14.4 110.132 14.47 110.272 14.61C110.412 14.75 110.482 14.92 110.482 15.12V16.35C111.002 15.71 111.662 15.18 112.462 14.76C113.282 14.32 114.292 14.1 115.492 14.1C116.712 14.1 117.772 14.38 118.672 14.94C119.572 15.48 120.262 16.25 120.742 17.25C121.242 18.25 121.492 19.45 121.492 20.85V29.28C121.492 29.48 121.422 29.65 121.282 29.79C121.142 29.93 120.972 30 120.772 30H118.132C117.932 30 117.762 29.93 117.622 29.79C117.482 29.65 117.412 29.48 117.412 29.28V21.03C117.412 19.87 117.122 18.96 116.542 18.3C115.982 17.64 115.162 17.31 114.082 17.31C113.042 17.31 112.212 17.64 111.592 18.3C110.972 18.96 110.662 19.87 110.662 21.03V29.28C110.662 29.48 110.592 29.65 110.452 29.79C110.312 29.93 110.142 30 109.942 30H107.302ZM126.382 30C126.182 30 126.012 29.93 125.872 29.79C125.732 29.65 125.662 29.48 125.662 29.28V9.75C125.662 9.53 125.732 9.35 125.872 9.21C126.012 9.07 126.182 9 126.382 9H139.582C139.802 9 139.982 9.07 140.122 9.21C140.262 9.35 140.332 9.53 140.332 9.75V11.73C140.332 11.93 140.262 12.1 140.122 12.24C139.982 12.38 139.802 12.45 139.582 12.45H129.712V17.76H138.922C139.142 17.76 139.322 17.83 139.462 17.97C139.602 18.09 139.672 18.26 139.672 18.48V20.34C139.672 20.56 139.602 20.74 139.462 20.88C139.322 21 139.142 21.06 138.922 21.06H129.712V26.55H139.822C140.042 26.55 140.222 26.62 140.362 26.76C140.502 26.9 140.572 27.08 140.572 27.3V29.28C140.572 29.48 140.502 29.65 140.362 29.79C140.222 29.93 140.042 30 139.822 30H126.382ZM149.637 30.3C148.597 30.3 147.677 30.13 146.877 29.79C146.097 29.43 145.447 28.93 144.927 28.29C144.407 27.65 144.007 26.9 143.727 26.04C143.447 25.16 143.287 24.2 143.247 23.16C143.227 22.8 143.217 22.48 143.217 22.2C143.217 21.9 143.227 21.57 143.247 21.21C143.287 20.21 143.437 19.28 143.697 18.42C143.977 17.56 144.377 16.81 144.897 16.17C145.437 15.51 146.097 15 146.877 14.64C147.677 14.28 148.597 14.1 149.637 14.1C150.717 14.1 151.627 14.29 152.367 14.67C153.127 15.03 153.757 15.5 154.257 16.08V9.42C154.257 9.22 154.317 9.05 154.437 8.91C154.577 8.77 154.757 8.7 154.977 8.7H157.527C157.727 8.7 157.897 8.77 158.037 8.91C158.177 9.05 158.247 9.22 158.247 9.42V29.28C158.247 29.48 158.177 29.65 158.037 29.79C157.897 29.93 157.727 30 157.527 30H155.157C154.937 30 154.757 29.93 154.617 29.79C154.497 29.65 154.437 29.48 154.437 29.28V28.17C153.937 28.79 153.297 29.3 152.517 29.7C151.757 30.1 150.797 30.3 149.637 30.3ZM150.747 27.09C151.587 27.09 152.257 26.9 152.757 26.52C153.257 26.14 153.627 25.66 153.867 25.08C154.107 24.48 154.237 23.87 154.257 23.25C154.277 22.89 154.287 22.51 154.287 22.11C154.287 21.69 154.277 21.3 154.257 20.94C154.237 20.34 154.097 19.77 153.837 19.23C153.577 18.67 153.197 18.21 152.697 17.85C152.197 17.49 151.547 17.31 150.747 17.31C149.907 17.31 149.237 17.5 148.737 17.88C148.257 18.24 147.907 18.72 147.687 19.32C147.467 19.92 147.337 20.58 147.297 21.3C147.277 21.9 147.277 22.5 147.297 23.1C147.337 23.82 147.467 24.48 147.687 25.08C147.907 25.68 148.257 26.17 148.737 26.55C149.237 26.91 149.907 27.09 150.747 27.09ZM168.036 30.3C166.816 30.3 165.756 30.03 164.856 29.49C163.976 28.93 163.296 28.15 162.816 27.15C162.336 26.13 162.096 24.93 162.096 23.55V15.12C162.096 14.92 162.166 14.75 162.306 14.61C162.446 14.47 162.616 14.4 162.816 14.4H165.456C165.676 14.4 165.846 14.47 165.966 14.61C166.106 14.75 166.176 14.92 166.176 15.12V23.37C166.176 25.85 167.266 27.09 169.446 27.09C170.486 27.09 171.306 26.76 171.906 26.1C172.526 25.44 172.836 24.53 172.836 23.37V15.12C172.836 14.92 172.906 14.75 173.046 14.61C173.186 14.47 173.356 14.4 173.556 14.4H176.196C176.396 14.4 176.566 14.47 176.706 14.61C176.846 14.75 176.916 14.92 176.916 15.12V29.28C176.916 29.48 176.846 29.65 176.706 29.79C176.566 29.93 176.396 30 176.196 30H173.766C173.546 30 173.366 29.93 173.226 29.79C173.106 29.65 173.046 29.48 173.046 29.28V28.05C172.506 28.75 171.836 29.3 171.036 29.7C170.236 30.1 169.236 30.3 168.036 30.3Z" fill="white"/>
</svg>
